inDegrees=no
num_controls=7
num_derivatives=13
num_iterations=134
num_multipliers=7
num_parameters=0
num_slacks=7
num_states=26
objective=4.755088
objective_accelerations=0.479250
objective_balance=0.006046
objective_effort=0.138752
objective_height=4.104279
objective_ligament=0.026762
solver_duration=1521.024642
status=Solve_Succeeded
success=true
DataType=double
version=3
OpenSimVersion=4.4-2022-07-23-0e9fedc
endheader
time	/jointset/ground_pelvis/pelvis_tilt/value	/jointset/ground_pelvis/pelvis_tx/value	/jointset/ground_pelvis/pelvis_ty/value	/jointset/hip_l/hip_flexion_l/value	/jointset/hip_l/hip_adduction_l/value	/jointset/hip_l/hip_rotation_l/value	/jointset/back/lumbar_extension/value	/jointset/patellofemoral_l/patellar_flexion_l/value	/jointset/knee_l/knee_flexion_l/value	/jointset/knee_l/knee_adduction_l/value	/jointset/knee_l/knee_rotation_l/value	/jointset/ankle_l/ankle_angle_l/value	/jointset/subtalar_l/subtalar_angle_l/value	/jointset/ground_pelvis/pelvis_tilt/speed	/jointset/ground_pelvis/pelvis_tx/speed	/jointset/ground_pelvis/pelvis_ty/speed	/jointset/hip_l/hip_flexion_l/speed	/jointset/hip_l/hip_adduction_l/speed	/jointset/hip_l/hip_rotation_l/speed	/jointset/back/lumbar_extension/speed	/jointset/patellofemoral_l/patellar_flexion_l/speed	/jointset/knee_l/knee_flexion_l/speed	/jointset/knee_l/knee_adduction_l/speed	/jointset/knee_l/knee_rotation_l/speed	/jointset/ankle_l/ankle_angle_l/speed	/jointset/subtalar_l/subtalar_angle_l/speed	/forceset/tau_hip_flexion_l	/forceset/tau_hip_adduction_l	/forceset/tau_hip_rotation_l	/forceset/tau_knee_flexion_l	/forceset/tau_ankle_angle_l	/forceset/tau_subtalar_angle_l	/forceset/tau_lumbar_extension	lambda_cid13_p0	lambda_cid13_p1	lambda_cid13_p2	lambda_cid13_p3	lambda_cid13_p4	lambda_cid13_p5	lambda_cid14_p0	/jointset/ground_pelvis/pelvis_tilt/accel	/jointset/ground_pelvis/pelvis_tx/accel	/jointset/ground_pelvis/pelvis_ty/accel	/jointset/hip_l/hip_flexion_l/accel	/jointset/hip_l/hip_adduction_l/accel	/jointset/hip_l/hip_rotation_l/accel	/jointset/back/lumbar_extension/accel	/jointset/patellofemoral_l/patellar_flexion_l/accel	/jointset/knee_l/knee_flexion_l/accel	/jointset/knee_l/knee_adduction_l/accel	/jointset/knee_l/knee_rotation_l/accel	/jointset/ankle_l/ankle_angle_l/accel	/jointset/subtalar_l/subtalar_angle_l/accel	gamma_cid13_p0	gamma_cid13_p1	gamma_cid13_p2	gamma_cid13_p3	gamma_cid13_p4	gamma_cid13_p5	gamma_cid14_p0
0	0.04923789307530806	0.1075755246688192	0.9028878980954623	0.1266917050730164	-0.369912524751197	-0.2174484036969447	-0.2144974744115991	0.2051547269256769	0.2051547269256735	-0.1745328829736399	-0.1529467989192349	0.09024399430361882	0.07907080058695957	0	0	0	0	0	0	0	0	0	0	0	0	0	0.1009249989722483	-0.08053779589504224	-0.006100722883555362	-0.2344800580020225	0.1638300169927413	-0.05975494299655202	-0.03597443192426298	23.43046865002911	22.41385728635433	-4.499519118577252	-19.36222011254412	-441.1572615100159	-71.65682842785404	-26.00142773714531	-2.08895748847888	-0.727554996259801	-0.6804191979070899	8.562984534878924	-0.2892975332757243	2.636653013849641	-3.273077307620988	8.962278076192497	8.962278076191554	1.54673445730636	-0.9110681837438225	3.232003204936674	0.6245509394065084	-7.212938417430556e-09	3.020898910051137e-07	-3.433009473950352e-08	2.710662663899026e-08	4.412497874014477e-09	1.099954805900007e-07	3.098301569892474e-08
0.01	0.04913906463884104	0.1075396348291588	0.902854887590733	0.1271071066109691	-0.369926264121066	-0.2173106554401025	-0.2146639320310694	0.2055914215978256	0.2055914215979354	-0.1744573056073477	-0.1529821905089012	0.09040192907745062	0.07910163914827924	-0.01971162387319181	-0.007152093657536666	-0.006582789976970267	0.0827523663393384	-0.002729727699244094	0.0274996150871755	-0.03304594983195162	0.08692937270064258	0.08692937270064033	0.01504159866189517	-0.006961712108604384	0.03142906253192071	0.006141351413040047	0.09862940417579083	-0.08656802988040162	-0.005500273883087921	-0.2314861420474699	0.1574768667416379	-0.05254235809358324	-0.0341323927610204	21.76822474553663	19.36054883018541	-3.770662457191472	-18.41552109040718	-441.8293309888024	-77.81935269543244	-26.00184491498739	-1.904157215227753	-0.7051499882687178	-0.6443113697350386	8.082169215570932	-0.2621284433503075	2.799125221281273	-3.283517711404711	8.496826407869012	8.496826407869259	1.471838628673375	-0.5712447137093235	3.074680924434273	0.6049298814709777	-2.43207674772081e-08	5.20842128574989e-07	-1.707678476101037e-08	5.91153149776297e-08	-1.297717549871658e-07	1.352992103301509e-07	5.391304758674109e-08
0.02	0.04884474148793956	0.1074330013653689	0.9027566286918048	0.1283401931187055	-0.3699667643789469	-0.2168994091393595	-0.2151534819269512	0.2068851219053687	0.2068851219053691	-0.1742335190427972	-0.1530837036171389	0.09086941910601865	0.07919309175157298	-0.03909894288594502	-0.01414872482588722	-0.01304967883971045	0.1635369939630314	-0.005352177602558864	0.0546996087795605	-0.0646184552807917	0.1714011270360436	0.1714011270360449	0.02964183964549681	-0.01322430378885003	0.06191105094842211	0.01212280839481572	0.09633380937904379	-0.09259826386569761	-0.004899824884625335	-0.2284922260926558	0.1511237164905755	-0.04532977319050849	-0.0322903535980613	20.14545203005809	16.30801064469767	-3.05070477484947	-17.53903623766947	-441.8226747332236	-83.84932252144742	-26.00279473869471	-2.024096516391068	-0.6964624984226778	-0.6572389750610663	8.169436791749886	-0.2678419740898351	2.576728734891529	-2.97838843099863	8.470754403144202	8.470754403144419	1.458462921647707	-0.7712440980720859	3.042588381852707	0.59257205315363	-4.142859653698565e-08	7.395943661448644e-07	1.765252174827763e-10	9.112400331626915e-08	-2.639560078483461e-07	1.60602940070301e-07	7.684307947455743e-08
0.03	0.04835814599015813	0.1072570508037515	0.9025941058949692	0.1303716681154506	-0.3700328775273946	-0.216219389569298	-0.2159514177426121	0.2090117892104414	0.2090117892103818	-0.1738657344905624	-0.1532460412896358	0.09163694951426131	0.07934366427049171	-0.05813659658460091	-0.02102701027482673	-0.01944765408508187	0.2424070652615311	-0.007849291792568871	0.0811675355716425	-0.09475831166550053	0.2535227429831962	0.2535227429831978	0.04383552856287186	-0.01919784596253861	0.0914168250726676	0.01796496109760939	0.09343983616579413	-0.08874095051499793	-0.00419268549509003	-0.224964056170834	0.1462220684582252	-0.04666247876613375	-0.03009089467455533	18.47544699168041	17.05266386658683	-3.024875283825609	-16.30554874349407	-441.9977410114986	-81.77636860677315	-26.00387940950768	-1.831064787000202	-0.6813366308541965	-0.6300461662625404	7.693147227043837	-0.2375823102854374	2.661333058971476	-3.000224814183876	8.021411081761164	8.021411081761123	1.38801745208027	-0.5036192818896088	2.87785870618523	0.5759105476361218	-5.183476256331708e-08	8.350610446183056e-07	1.884441038914098e-08	1.082759328437405e-07	-3.654622563509054e-07	1.55590885446096e-07	8.750856909202434e-08
0.04	0.04768368095730785	0.1070127523750996	0.9023678094722818	0.1331813148108133	-0.3701233490515081	-0.2152787890497958	-0.2170444402365158	0.2119473818531195	0.211947381853119	-0.1733583739341178	-0.1534667563850496	0.09269419501944173	0.07955183305019717	-0.07667284989911791	-0.02781829823276861	-0.02580440401007509	0.3191713336858004	-0.01022385273572892	0.1068157986679083	-0.1236357909292745	0.3331861945807603	0.3331861945807618	0.0575570404921652	-0.02489978833111291	0.1198540703358997	0.02364206055216053	0.09054586295258132	-0.0848836371642895	-0.003485546104496695	-0.2214358862491943	0.1413204204258544	-0.04799518434176935	-0.02789143575100047	16.84183361157204	17.80049521567009	-3.010462797269983	-15.13431218870612	-441.5408557225157	-79.57276242361475	-26.00451660098322	-1.923816439563184	-0.6790630002232478	-0.6489939109854177	7.748276216903835	-0.2433313247198022	2.412795995728284	-2.725913006811609	7.979121533226544	7.97912153322664	1.36402752403144	-0.7169241370492379	2.828882609649929	0.5595614035051298	-6.210274997040218e-08	9.279857528010987e-07	3.754146205962735e-08	1.251215374472702e-07	-4.662947315677201e-07	1.499537631030383e-07	9.792118154927785e-08
